# xmcd
#
# Track frame offsets:
# 150
# 17034
# 28073
# 45372
# 60915
# 81705
# 94879
# 108382
# 123850
# 147040
#
# Disc length: 2140 seconds
#
#
# Revision: 0
# Processed by: cddbd v1.5.1PL2 Copyright (c) Steve Scherf et al.
# Submitted via: FreeRIP 2.944 
#
DISCID=7b085a0a
DTITLE=Rodney Crowell - Rodney Crowell
DYEAR=1981
DGENRE=Country
TTITLE0=Stars On The Water
TTITLE1=Just Wanta Dance
TTITLE2=She Ain't Going Nowhere
TTITLE3=Don't Need No Other Now
TTITLE4=Shame On The Moon
TTITLE5=Only Two Hearts
TTITLE6=Victim Or A Fool
TTITLE7=All You've Got To Do
TTITLE8='Til I Gain Control Again
TTITLE9=Old Pipeliner
EXTD=
EXTT0=
EXTT1=
EXTT2=
EXTT3=
EXTT4=
EXTT5=
EXTT6=
EXTT7=
EXTT8=
EXTT9=
PLAYORDER=
